<?xml version="1.0" encoding="utf-8"?>
<!-- Generator: Adobe Illustrator 24.2.3, SVG Export Plug-In . SVG Version: 6.00 Build 0)  -->
<svg version="1.1" id="Layer_1" xmlns="http://www.w3.org/2000/svg" xmlns:xlink="http://www.w3.org/1999/xlink" x="0px" y="0px"
	 viewBox="0 0 1080 1080" style="enable-background:new 0 0 1080 1080;" xml:space="preserve">
<path d="M782.2,404.2H327.9c-16.4,0-29.8,13.3-29.8,29.8v261.1c0,16.4,13.3,29.8,29.8,29.8h454.3c16.4,0,29.8-13.3,29.8-29.8V434
	C812,417.6,798.6,404.2,782.2,404.2z M465,505.6h-0.1c-0.2,0-0.4,0-0.6,0c-34.8,0-63,28.2-63,63c0,18,7.5,34.2,19.6,45.7
	c0.8,0.8,1.6,1.5,2.4,2.2c4.1,4.2,6.6,10,6.8,16.3v26.9c0,1.7-1.3,3-3,3c-0.4,0-0.7-0.1-1.1-0.2c-0.1,0-0.1,0-0.1-0.1
	c-0.1,0-0.1-0.1-0.2-0.1c0,0,0,0,0,0c-0.9-0.4-1.8-0.8-2.6-1.2c-0.7-0.3-1.4-0.7-2.1-1c-0.6-0.3-1.2-0.6-1.8-0.9
	c-0.3-0.1-0.6-0.3-0.8-0.4c-0.4-0.2-0.8-0.4-1.2-0.6c-0.4-0.2-0.8-0.4-1.3-0.7c-0.4-0.2-0.8-0.5-1.2-0.7c-0.1,0-0.2-0.1-0.3-0.2
	c-0.2-0.1-0.4-0.2-0.6-0.3c-0.1-0.1-0.2-0.1-0.3-0.2c0,0,0,0,0,0c-0.1,0-0.2-0.1-0.3-0.1c-0.1-0.1-0.2-0.1-0.3-0.2
	c-0.1-0.1-0.2-0.1-0.3-0.2c-0.1-0.1-0.2-0.1-0.3-0.2c-0.2-0.1-0.4-0.3-0.6-0.4c-0.2-0.1-0.4-0.2-0.6-0.4c-0.1-0.1-0.2-0.1-0.3-0.2
	c-0.1,0-0.1-0.1-0.2-0.1c0,0,0,0-0.1,0c0,0-0.1,0-0.1-0.1c0,0-0.1,0-0.1-0.1c-0.2-0.1-0.4-0.3-0.6-0.4c-0.2-0.2-0.4-0.3-0.7-0.4
	c-0.1-0.1-0.2-0.1-0.3-0.2c-0.1-0.1-0.2-0.1-0.3-0.2c-0.2-0.1-0.4-0.3-0.6-0.4c-0.2-0.1-0.3-0.2-0.5-0.3c-0.2-0.1-0.3-0.2-0.5-0.3
	c-0.3-0.2-0.7-0.5-1-0.7c-0.6-0.4-1.2-0.9-1.8-1.3c0,0-0.1,0-0.1-0.1c-0.4-0.3-0.8-0.6-1.2-0.9c-1.6-1.2-3.1-2.5-4.6-3.8
	c-0.5-0.4-0.9-0.8-1.3-1.2c-0.9-0.8-1.8-1.6-2.6-2.5c-0.4-0.4-0.8-0.8-1.3-1.3c-0.6-0.6-1.1-1.2-1.7-1.8c-0.2-0.2-0.5-0.5-0.7-0.7
	c-0.2-0.2-0.4-0.4-0.6-0.7c-0.5-0.5-1-1.1-1.4-1.6c-0.1-0.1-0.2-0.3-0.3-0.4c-0.3-0.4-0.7-0.8-1-1.2c-0.4-0.5-0.8-1-1.2-1.5
	c-0.7-0.9-1.4-1.8-2.1-2.7c-0.2-0.2-0.3-0.4-0.5-0.6c-0.1-0.2-0.3-0.4-0.4-0.6c-1.8-2.5-3.5-5.1-5.1-7.8c-0.2-0.3-0.3-0.6-0.5-0.9
	c-0.5-0.8-0.9-1.5-1.3-2.3c-0.3-0.6-0.7-1.3-1-1.9c-0.1-0.2-0.2-0.4-0.3-0.6c-0.2-0.5-0.5-0.9-0.7-1.4c-0.3-0.7-0.6-1.4-1-2
	c-0.2-0.4-0.4-0.8-0.6-1.3c-0.9-2-1.7-3.9-2.4-6c0-0.1-0.1-0.2-0.1-0.3c0-0.1-0.1-0.2-0.1-0.3c-0.2-0.7-0.5-1.4-0.7-2
	c-0.1-0.3-0.2-0.6-0.3-0.9c-0.2-0.5-0.3-0.9-0.5-1.4c-0.2-0.7-0.5-1.5-0.7-2.2c-0.2-0.6-0.3-1.2-0.5-1.9c-0.2-0.6-0.3-1.2-0.5-1.8
	c0-0.1-0.1-0.3-0.1-0.4c-0.1-0.5-0.3-1.1-0.4-1.6c-0.1-0.3-0.1-0.6-0.2-0.9c-0.1-0.5-0.2-1-0.3-1.6c-0.4-2.2-0.8-4.4-1.1-6.6
	c-0.1-0.5-0.1-1.1-0.2-1.6c0-0.3-0.1-0.6-0.1-0.9c0-0.4-0.1-0.8-0.1-1.2c-0.1-0.4-0.1-0.9-0.1-1.3c0-0.3,0-0.5-0.1-0.8
	c0-0.6-0.1-1.1-0.1-1.7c0-0.4,0-0.8-0.1-1.1c0-0.2,0-0.4,0-0.6c0-0.6,0-1.2-0.1-1.9c0-0.8,0-1.5,0-2.3c0-19.7,5.6-38,15.2-53.6
	c0.1-0.2,0.2-0.3,0.3-0.5c0.5-0.9,0.7-1.8,0.7-2.9c0-3.3-2.7-6-6-6h-34.5c-7.8-0.6-13.9-7.1-13.9-14.9v-24.1h140.1
	c0.6,0,1.2,0,1.8,0c0.4,0,0.8,0,1.1,0c11.1,0.4,21.3,2.8,25.6,4c0.2,0,0.3,0.1,0.5,0.1c0,0,0.1,0,0.1,0c0.2,0,0.4,0.1,0.6,0.2
	c0.3,0.1,0.6,0.2,0.9,0.3c0.9,0.3,1.7,0.6,2.6,0.8c0.8,0.3,1.6,0.6,2.4,0.9c0.1,0.1,0.3,0.1,0.4,0.2c0.1,0,0.2,0.1,0.3,0.1
	c0.8,0.3,1.5,0.6,2.2,0.9c25.6,10.7,40.5,29.5,46.2,37.7c0,0,0.1,0.1,0.1,0.1c4,5.9,8.1,11.7,12.1,17.6c0.1,0.1,0.1,0.2,0.2,0.3
	c0.3,0.5,0.5,1,0.5,1.7c0,0.6-0.2,1.2-0.5,1.7c0,0.1-0.1,0.2-0.2,0.2l-0.9,1.2l-19,25.3c0,0,0,0,0,0l-0.5,0.7
	c-0.5,0.5-1.3,0.9-2.1,0.9c-0.9,0-1.8-0.4-2.3-1.1c-0.1-0.1-0.1-0.2-0.2-0.2c-4.3-6-8.5-12.1-13-18c-3.8-4.9-6.9-9.2-11.8-14.5
	c-4.2-4.8-13.3-14.4-28.4-19.2c0,0-9.6-2.9-18.9-2.9C465.7,505.6,465.4,505.6,465,505.6z M670.1,670.6c-14.4,0-28.2-3.9-30.5-4.6
	c-30.7-9.7-48-31.7-54.3-40.7c-3.7-5.4-7.4-10.7-11.1-16.1c0,0-0.1-0.1-0.1-0.1c-0.6-1-1-2.1-1-3.3c0-1.1,0.3-2.2,0.9-3.1l0.7-0.9
	l13.3-17.8l0.3-0.4l0.3-0.4c0,0,0,0,0.1-0.1c1.6-2,4.1-3.2,6.9-3.2c2.7,0,5.1,1.2,6.8,3.1c0.3,0.5,0.7,1,1,1.5l0,0
	c2.5,3.6,5.1,7.1,7.8,10.7c3.8,4.9,6.9,9.2,11.8,14.5c4.2,4.8,13.3,14.4,28.4,19.2c0,0,9.5,2.9,18.9,2.9c34.8,0,63-28.2,63-63
	c0-34.8-28.2-63-63-63c-9.3,0-18.9,2.9-18.9,2.9c-15,4.7-24.1,14.4-28.4,19.2c-4.9,5.3-8.1,9.6-11.8,14.5
	c-6.6,8.7-12.6,17.7-19.1,26.5l-23.8,31.9l-0.1,0.1c-5.7,8.2-11.4,16.5-17.1,24.7c-4.1,5.8-12.7,16.9-26.4,26.7c0,0,0,0,0,0
	c-4.9,3.5-10.5,6.8-16.8,9.7c-3.5,1.6-7.2,3-11.1,4.3c-1.1,0.3-4.4,1.3-9.2,2.3c-0.1,0-0.1,0-0.2,0c-1,0.2-2,0.4-3.1,0.6
	c0,0,0,0,0,0c-0.3,0-0.5,0.1-0.8,0.1c-0.2,0-0.4,0-0.6,0c-3.3,0-6-2.7-6-6v-14.7c0-9.3,5.3-17.4,13.1-21.4c0.8-0.4,1.7-0.7,2.5-1.1
	c10.8-5.1,17.6-12.4,21.1-16.3c4.9-5.3,8.1-9.6,11.8-14.5c6.6-8.7,12.6-17.7,19.1-26.5l23.8-31.8c5.7-8.3,11.5-16.5,17.2-24.8
	c6.3-9,23.7-31,54.3-40.7c2.3-0.7,16-4.6,30.5-4.6c56.3,0,102,45.7,102,102C772.1,624.9,726.4,670.6,670.1,670.6z"/>
</svg>
